<svg width="39" height="11" viewBox="0 0 39 11" fill="none" xmlns="http://www.w3.org/2000/svg">
<path d="M1.29266 10.1818H4.44129e-05L3.73868 1.43051e-06H5.01141L8.75004 10.1818H7.45743L4.41482 1.6108H4.33527L1.29266 10.1818ZM1.76993 6.20455H6.98016V7.2983H1.76993V6.20455ZM10.336 10.1818V1.43051e-06H11.5093V3.75852H11.6087C11.6949 3.62595 11.8142 3.45691 11.9667 3.25142C12.1224 3.04262 12.3445 2.85701 12.6329 2.6946C12.9245 2.52888 13.3189 2.44602 13.8161 2.44602C14.4591 2.44602 15.0258 2.60677 15.5164 2.92827C16.0069 3.24976 16.3897 3.70549 16.6648 4.29546C16.9399 4.88542 17.0775 5.58144 17.0775 6.38352C17.0775 7.19224 16.9399 7.89323 16.6648 8.48651C16.3897 9.07647 16.0086 9.53386 15.5214 9.85867C15.0341 10.1802 14.4723 10.3409 13.836 10.3409C13.3455 10.3409 12.9527 10.2597 12.6577 10.0973C12.3627 9.93158 12.1357 9.74432 11.9766 9.53551C11.8175 9.32339 11.6949 9.14773 11.6087 9.00852H11.4695V10.1818H10.336ZM11.4894 6.36364C11.4894 6.94034 11.5739 7.4491 11.7429 7.88992C11.912 8.32742 12.1589 8.67046 12.4837 8.91904C12.8085 9.1643 13.2062 9.28693 13.6769 9.28693C14.1674 9.28693 14.5767 9.15767 14.9049 8.89915C15.2363 8.63731 15.4849 8.28599 15.6506 7.84517C15.8196 7.40104 15.9042 6.9072 15.9042 6.36364C15.9042 5.82671 15.8213 5.3428 15.6556 4.91193C15.4932 4.47775 15.2463 4.13471 14.9148 3.88281C14.5867 3.62761 14.1741 3.5 13.6769 3.5C13.1996 3.5 12.7986 3.62098 12.4738 3.86293C12.149 4.10156 11.9037 4.43632 11.738 4.86719C11.5723 5.29475 11.4894 5.79356 11.4894 6.36364ZM21.9745 10.3409C21.2851 10.3409 20.6802 10.1768 20.1598 9.84872C19.6428 9.5206 19.2384 9.06155 18.9468 8.47159C18.6584 7.88163 18.5142 7.19224 18.5142 6.40341C18.5142 5.60796 18.6584 4.91359 18.9468 4.32031C19.2384 3.72704 19.6428 3.26634 20.1598 2.93821C20.6802 2.61009 21.2851 2.44602 21.9745 2.44602C22.6639 2.44602 23.2671 2.61009 23.7841 2.93821C24.3045 3.26634 24.7089 3.72704 24.9972 4.32031C25.2889 4.91359 25.4347 5.60796 25.4347 6.40341C25.4347 7.19224 25.2889 7.88163 24.9972 8.47159C24.7089 9.06155 24.3045 9.5206 23.7841 9.84872C23.2671 10.1768 22.6639 10.3409 21.9745 10.3409ZM21.9745 9.28693C22.4982 9.28693 22.929 9.1527 23.2671 8.88423C23.6052 8.61577 23.8554 8.26279 24.0178 7.82529C24.1802 7.38779 24.2614 6.91383 24.2614 6.40341C24.2614 5.89299 24.1802 5.41738 24.0178 4.97656C23.8554 4.53575 23.6052 4.17945 23.2671 3.90767C22.929 3.63589 22.4982 3.5 21.9745 3.5C21.4508 3.5 21.0199 3.63589 20.6819 3.90767C20.3438 4.17945 20.0936 4.53575 19.9312 4.97656C19.7687 5.41738 19.6875 5.89299 19.6875 6.40341C19.6875 6.91383 19.7687 7.38779 19.9312 7.82529C20.0936 8.26279 20.3438 8.61577 20.6819 8.88423C21.0199 9.1527 21.4508 9.28693 21.9745 9.28693ZM32.0382 7.05966V2.54546H33.2115V10.1818H32.0382V8.88921H31.9587C31.7797 9.27699 31.5013 9.60677 31.1234 9.87855C30.7456 10.147 30.2683 10.2813 29.6916 10.2813C29.2144 10.2813 28.7901 10.1768 28.4189 9.96804C28.0477 9.75592 27.756 9.43774 27.5439 9.0135C27.3318 8.58594 27.2257 8.04735 27.2257 7.39773V2.54546H28.399V7.31818C28.399 7.875 28.5548 8.31913 28.8663 8.65057C29.1812 8.98201 29.5823 9.14773 30.0695 9.14773C30.3611 9.14773 30.6578 9.07316 30.9594 8.92401C31.2643 8.77486 31.5195 8.54617 31.725 8.23793C31.9338 7.92969 32.0382 7.53693 32.0382 7.05966ZM38.6815 2.54546V3.53977H34.7241V2.54546H38.6815ZM35.8775 0.715911H37.0508V7.99432C37.0508 8.32576 37.0989 8.57434 37.195 8.74006C37.2944 8.90246 37.4204 9.01184 37.5728 9.06818C37.7286 9.12121 37.8927 9.14773 38.065 9.14773C38.1943 9.14773 38.3004 9.1411 38.3832 9.12784C38.4661 9.11127 38.5324 9.09801 38.5821 9.08807L38.8207 10.142C38.7412 10.1719 38.6301 10.2017 38.4876 10.2315C38.3451 10.2647 38.1645 10.2813 37.9457 10.2813C37.6143 10.2813 37.2895 10.21 36.9713 10.0675C36.6564 9.92495 36.3946 9.70786 36.1858 9.41619C35.9803 9.12453 35.8775 8.75663 35.8775 8.3125V0.715911Z" fill="#3A3845"/>
</svg>
