<svg width="38" height="11" viewBox="0 0 38 11" fill="none" xmlns="http://www.w3.org/2000/svg">
<path d="M4.44651e-05 10.1818V1.43051e-06H1.233V4.53409H6.66198V1.43051e-06H7.89493V10.1818H6.66198V5.62784H1.233V10.1818H4.44651e-05ZM13.3065 10.3409C12.6171 10.3409 12.0122 10.1768 11.4919 9.84872C10.9748 9.5206 10.5705 9.06155 10.2788 8.47159C9.99046 7.88163 9.84628 7.19224 9.84628 6.40341C9.84628 5.60796 9.99046 4.91359 10.2788 4.32031C10.5705 3.72704 10.9748 3.26634 11.4919 2.93821C12.0122 2.61009 12.6171 2.44602 13.3065 2.44602C13.9959 2.44602 14.5991 2.61009 15.1162 2.93821C15.6365 3.26634 16.0409 3.72704 16.3292 4.32031C16.6209 4.91359 16.7667 5.60796 16.7667 6.40341C16.7667 7.19224 16.6209 7.88163 16.3292 8.47159C16.0409 9.06155 15.6365 9.5206 15.1162 9.84872C14.5991 10.1768 13.9959 10.3409 13.3065 10.3409ZM13.3065 9.28693C13.8302 9.28693 14.2611 9.1527 14.5991 8.88423C14.9372 8.61577 15.1874 8.26279 15.3498 7.82529C15.5122 7.38779 15.5934 6.91383 15.5934 6.40341C15.5934 5.89299 15.5122 5.41738 15.3498 4.97656C15.1874 4.53575 14.9372 4.17945 14.5991 3.90767C14.2611 3.63589 13.8302 3.5 13.3065 3.5C12.7828 3.5 12.352 3.63589 12.0139 3.90767C11.6758 4.17945 11.4256 4.53575 11.2632 4.97656C11.1008 5.41738 11.0196 5.89299 11.0196 6.40341C11.0196 6.91383 11.1008 7.38779 11.2632 7.82529C11.4256 8.26279 11.6758 8.61577 12.0139 8.88423C12.352 9.1527 12.7828 9.28693 13.3065 9.28693ZM18.5578 10.1818V2.54546H19.6913V3.73864H19.7907C19.9498 3.33097 20.2067 3.01444 20.5613 2.78906C20.9159 2.56037 21.3418 2.44602 21.839 2.44602C22.3428 2.44602 22.7621 2.56037 23.0968 2.78906C23.4349 3.01444 23.6984 3.33097 23.8873 3.73864H23.9668C24.1624 3.34423 24.4557 3.03101 24.8468 2.79901C25.2379 2.56369 25.7069 2.44602 26.2538 2.44602C26.9365 2.44602 27.495 2.6598 27.9292 3.08736C28.3634 3.5116 28.5805 4.17282 28.5805 5.07102V10.1818H27.4072V5.07102C27.4072 4.50758 27.2531 4.10488 26.9448 3.86293C26.6366 3.62098 26.2737 3.5 25.856 3.5C25.3191 3.5 24.9032 3.66241 24.6082 3.98722C24.3132 4.30871 24.1657 4.71638 24.1657 5.21023V10.1818H22.9725V4.95171C22.9725 4.51752 22.8317 4.16785 22.5499 3.9027C22.2682 3.63423 21.9053 3.5 21.4612 3.5C21.1562 3.5 20.8712 3.5812 20.606 3.74361C20.3442 3.90601 20.1321 4.13139 19.9697 4.41975C19.8106 4.70478 19.731 5.03457 19.731 5.40909V10.1818H18.5578ZM33.9274 10.3409C33.1916 10.3409 32.5569 10.1785 32.0233 9.85369C31.493 9.52557 31.0837 9.06818 30.7953 8.48154C30.5103 7.89157 30.3678 7.20549 30.3678 6.4233C30.3678 5.6411 30.5103 4.95171 30.7953 4.35512C31.0837 3.75521 31.4847 3.28788 31.9984 2.95313C32.5155 2.61506 33.1187 2.44602 33.8081 2.44602C34.2058 2.44602 34.5986 2.51231 34.9864 2.64489C35.3742 2.77746 35.7271 2.9929 36.0453 3.29119C36.3635 3.58618 36.6171 3.97727 36.806 4.46449C36.9949 4.95171 37.0894 5.55161 37.0894 6.26421V6.76137H31.203V5.74716H35.8962C35.8962 5.31629 35.81 4.93182 35.6377 4.59375C35.4686 4.25568 35.2267 3.98887 34.9118 3.79333C34.6002 3.59778 34.2323 3.5 33.8081 3.5C33.3408 3.5 32.9364 3.61601 32.595 3.84801C32.257 4.07671 31.9968 4.375 31.8145 4.7429C31.6322 5.1108 31.5411 5.50521 31.5411 5.92614V6.60227C31.5411 7.17898 31.6405 7.66785 31.8394 8.06889C32.0415 8.46662 32.3216 8.76989 32.6796 8.97869C33.0375 9.18419 33.4535 9.28693 33.9274 9.28693C34.2357 9.28693 34.5141 9.24385 34.7627 9.15767C35.0145 9.06818 35.2316 8.93561 35.4139 8.75994C35.5962 8.58097 35.7371 8.3589 35.8365 8.09375L36.97 8.41193C36.8507 8.7964 36.6502 9.13447 36.3685 9.42614C36.0868 9.71449 35.7387 9.93987 35.3244 10.1023C34.9101 10.2614 34.4445 10.3409 33.9274 10.3409Z" fill="#3A3845"/>
</svg>
