<svg width="33" height="14" viewBox="0 0 33 14" fill="none" xmlns="http://www.w3.org/2000/svg">
<path d="M6.00573 2.68466C5.94607 2.18087 5.70412 1.78977 5.27987 1.51136C4.85563 1.23295 4.33527 1.09375 3.71879 1.09375C3.26804 1.09375 2.87362 1.16667 2.53556 1.3125C2.2008 1.45833 1.93896 1.65885 1.75004 1.91406C1.56444 2.16927 1.47164 2.45928 1.47164 2.78409C1.47164 3.05587 1.53627 3.28953 1.66553 3.48508C1.7981 3.67732 1.96714 3.83807 2.17263 3.96733C2.37812 4.09328 2.59356 4.19768 2.81894 4.28054C3.04432 4.36008 3.25146 4.42472 3.44039 4.47443L4.47448 4.75284C4.73963 4.82244 5.03461 4.91856 5.35942 5.04119C5.68754 5.16382 6.00075 5.3312 6.29905 5.54332C6.60066 5.75213 6.84924 6.0206 7.04479 6.34872C7.24034 6.67685 7.33811 7.07954 7.33811 7.55682C7.33811 8.10701 7.19394 8.60417 6.90558 9.04829C6.62055 9.49242 6.20293 9.84541 5.65274 10.1072C5.10587 10.3691 4.44133 10.5 3.65914 10.5C2.92997 10.5 2.29858 10.3823 1.76496 10.147C1.23466 9.91169 0.817043 9.58357 0.512118 9.16264C0.210508 8.74171 0.0398171 8.25284 4.44129e-05 7.69602H1.27277C1.30592 8.08049 1.43518 8.39867 1.66056 8.65057C1.88925 8.89915 2.1776 9.08475 2.52561 9.20739C2.87694 9.3267 3.25478 9.38636 3.65914 9.38636C4.12978 9.38636 4.55236 9.31013 4.92689 9.15767C5.30142 9.00189 5.59806 8.78646 5.81681 8.51136C6.03556 8.23295 6.14493 7.90814 6.14493 7.53693C6.14493 7.19886 6.05047 6.92377 5.86155 6.71165C5.67263 6.49953 5.42405 6.32718 5.11581 6.1946C4.80757 6.06203 4.47448 5.94602 4.11652 5.84659L2.86368 5.48864C2.06823 5.25994 1.43849 4.93347 0.974476 4.50923C0.510461 4.08499 0.278453 3.52983 0.278453 2.84375C0.278453 2.27367 0.432573 1.77651 0.740811 1.35227C1.05236 0.924715 1.46998 0.593275 1.99365 0.357954C2.52064 0.119317 3.10895 -1.07288e-06 3.75857 -1.07288e-06C4.41482 -1.07288e-06 4.99815 0.11766 5.50857 0.352982C6.01898 0.584989 6.42334 0.903171 6.72164 1.30753C7.02325 1.71188 7.18234 2.17093 7.19891 2.68466H6.00573ZM10.3795 5.72727V10.321H9.20619V0.139204H10.3795V3.87784H10.4789C10.6579 3.48343 10.9264 3.17022 11.2843 2.93821C11.6456 2.70289 12.1262 2.58523 12.7261 2.58523C13.2464 2.58523 13.7022 2.68963 14.0933 2.89844C14.4844 3.10393 14.7876 3.42045 15.0031 3.84801C15.2218 4.27225 15.3312 4.8125 15.3312 5.46875V10.321H14.1579V5.54829C14.1579 4.94176 14.0005 4.47277 13.6856 4.14133C13.374 3.80658 12.9415 3.6392 12.388 3.6392C12.0035 3.6392 11.6588 3.72041 11.3539 3.88281C11.0523 4.04522 10.8137 4.2822 10.638 4.59375C10.4657 4.9053 10.3795 5.28314 10.3795 5.72727ZM20.5799 10.4801C19.8906 10.4801 19.2857 10.3161 18.7653 9.98793C18.2483 9.6598 17.8439 9.20076 17.5522 8.61079C17.2639 8.02083 17.1197 7.33144 17.1197 6.54261C17.1197 5.74716 17.2639 5.05279 17.5522 4.45952C17.8439 3.86624 18.2483 3.40554 18.7653 3.07741C19.2857 2.74929 19.8906 2.58523 20.5799 2.58523C21.2693 2.58523 21.8726 2.74929 22.3896 3.07741C22.91 3.40554 23.3143 3.86624 23.6027 4.45952C23.8943 5.05279 24.0402 5.74716 24.0402 6.54261C24.0402 7.33144 23.8943 8.02083 23.6027 8.61079C23.3143 9.20076 22.91 9.6598 22.3896 9.98793C21.8726 10.3161 21.2693 10.4801 20.5799 10.4801ZM20.5799 9.42614C21.1036 9.42614 21.5345 9.2919 21.8726 9.02344C22.2106 8.75497 22.4609 8.40199 22.6233 7.96449C22.7857 7.52699 22.8669 7.05303 22.8669 6.54261C22.8669 6.0322 22.7857 5.55658 22.6233 5.11577C22.4609 4.67495 22.2106 4.31865 21.8726 4.04687C21.5345 3.77509 21.1036 3.6392 20.5799 3.6392C20.0563 3.6392 19.6254 3.77509 19.2873 4.04687C18.9493 4.31865 18.699 4.67495 18.5366 5.11577C18.3742 5.55658 18.293 6.0322 18.293 6.54261C18.293 7.05303 18.3742 7.52699 18.5366 7.96449C18.699 8.40199 18.9493 8.75497 19.2873 9.02344C19.6254 9.2919 20.0563 9.42614 20.5799 9.42614ZM25.8312 13.1847V2.68466H26.9647V3.89773H27.1039C27.1901 3.76515 27.3094 3.59612 27.4619 3.39062C27.6176 3.18182 27.8397 2.99621 28.1281 2.83381C28.4197 2.66809 28.8141 2.58523 29.3113 2.58523C29.9543 2.58523 30.5211 2.74597 31.0116 3.06747C31.5021 3.38897 31.8849 3.8447 32.16 4.43466C32.4351 5.02462 32.5727 5.72064 32.5727 6.52273C32.5727 7.33144 32.4351 8.03243 32.16 8.62571C31.8849 9.21567 31.5038 9.67306 31.0166 9.99787C30.5293 10.3194 29.9676 10.4801 29.3312 10.4801C28.8407 10.4801 28.4479 10.3989 28.1529 10.2365C27.8579 10.0708 27.6309 9.88352 27.4718 9.67472C27.3127 9.46259 27.1901 9.28693 27.1039 9.14773H27.0045V13.1847H25.8312ZM26.9846 6.50284C26.9846 7.07954 27.0691 7.5883 27.2381 8.02912C27.4072 8.46662 27.6541 8.80966 27.9789 9.05824C28.3037 9.3035 28.7015 9.42614 29.1721 9.42614C29.6626 9.42614 30.072 9.29687 30.4001 9.03835C30.7315 8.77651 30.9801 8.42519 31.1458 7.98437C31.3149 7.54025 31.3994 7.0464 31.3994 6.50284C31.3994 5.96591 31.3165 5.48201 31.1508 5.05114C30.9884 4.61695 30.7415 4.27391 30.41 4.02202C30.0819 3.76681 29.6693 3.6392 29.1721 3.6392C28.6948 3.6392 28.2938 3.76018 27.969 4.00213C27.6442 4.24077 27.3989 4.57552 27.2332 5.00639C27.0675 5.43395 26.9846 5.93276 26.9846 6.50284Z" fill="#3A3845"/>
</svg>
